<?xml version="1.0" encoding="utf-8"?>
<!-- Generator: Adobe Illustrator 16.0.0, SVG Export Plug-In . SVG Version: 6.00 Build 0)  -->
<!DOCTYPE svg PUBLIC "-//W3C//DTD SVG 1.1//EN" "http://www.w3.org/Graphics/SVG/1.1/DTD/svg11.dtd">
<svg version="1.1" id="Capa_1" xmlns="http://www.w3.org/2000/svg" xmlns:xlink="http://www.w3.org/1999/xlink" x="0px" y="0px"
	 width="75px" height="95px" viewBox="0 0 75 95" enable-background="new 0 0 75 95" xml:space="preserve">
<path fill="#2780C2" d="M72.256,15.174c0-7.173-5.816-12.987-12.988-12.987H15.733c-7.174,0-12.988,5.814-12.988,12.987V58.71
	c0,7.174,5.814,12.987,12.988,12.987h43.535c7.172,0,12.987-5.813,12.987-12.987L72.256,15.174L72.256,15.174z"/>
<g>
	<path fill="#14438F" d="M3.489,92.516V74.867h2.076v15.811h7.769l-0.072,1.838H3.489z"/>
	<path fill="#14438F" d="M14.238,88.148v-8.724h2.005v8.746c0,0.573,0.081,1.06,0.245,1.456c0.163,0.396,0.397,0.706,0.704,0.925
		c0.307,0.22,0.652,0.376,1.039,0.472c0.386,0.096,0.829,0.144,1.33,0.144c1.034,0,1.84-0.228,2.417-0.681s0.865-1.225,0.865-2.314
		v-8.746h2.004v8.723c0,0.668-0.095,1.27-0.286,1.803s-0.447,0.977-0.77,1.33c-0.322,0.354-0.71,0.646-1.164,0.877
		c-0.454,0.23-0.933,0.398-1.438,0.502s-1.048,0.154-1.629,0.154c-0.573,0-1.114-0.053-1.623-0.154
		c-0.509-0.104-0.993-0.271-1.45-0.508c-0.458-0.234-0.852-0.528-1.182-0.883c-0.33-0.354-0.59-0.797-0.781-1.33
		S14.238,88.809,14.238,88.148z"/>
	<path fill="#14438F" d="M43.83,92.516v-6.813c0-0.637-0.016-1.17-0.043-1.6s-0.092-0.867-0.191-1.313s-0.238-0.797-0.416-1.057
		c-0.18-0.258-0.428-0.469-0.746-0.633c-0.317-0.162-0.701-0.244-1.146-0.244c-0.875,0-1.621,0.234-2.236,0.705
		c-0.616,0.47-1.057,1.129-1.319,1.979c-0.072,0.573-0.107,1.187-0.107,1.838v7.136h-1.993v-7.027c0-0.59-0.02-1.1-0.06-1.533
		c-0.04-0.434-0.116-0.855-0.227-1.266c-0.111-0.41-0.26-0.741-0.447-0.996c-0.187-0.254-0.436-0.457-0.746-0.608
		c-0.311-0.151-0.68-0.228-1.11-0.228c-0.955,0-1.756,0.244-2.404,0.729s-1.084,1.13-1.307,1.934
		c-0.072,0.612-0.107,1.276-0.107,1.992v7.006h-1.993c-0.016-8.187-0.024-12.55-0.024-13.091h1.67l0.25,1.873
		c0.398-0.604,0.962-1.112,1.694-1.526c0.732-0.414,1.563-0.621,2.494-0.621c0.485,0,0.933,0.051,1.342,0.148
		c0.41,0.1,0.752,0.227,1.026,0.376c0.274,0.151,0.519,0.333,0.734,0.544s0.382,0.418,0.501,0.62
		c0.12,0.202,0.219,0.415,0.298,0.638c0.956-1.551,2.415-2.326,4.379-2.326c1.455,0,2.523,0.416,3.205,1.248
		c0.68,0.83,1.02,2.063,1.02,3.691v8.426h-1.99V92.516z"/>
	<path fill="#14438F" d="M50.104,74.664v2.363h-2.006v-2.363H50.104z M50.104,79.426v13.09h-2.006v-13.09H50.104L50.104,79.426z"/>
	<path fill="#14438F" d="M58.775,92.79c-1.9,0-3.398-0.604-4.492-1.813s-1.641-2.863-1.641-4.963c0-2.029,0.528-3.675,1.588-4.936
		c1.057-1.262,2.449-1.903,4.176-1.928c1.623,0,2.91,0.556,3.859,1.664c0.95,1.11,1.426,2.593,1.426,4.445
		c0,0.096-0.002,0.271-0.006,0.524c-0.004,0.255-0.006,0.438-0.006,0.55h-8.984c0.022,1.486,0.408,2.646,1.15,3.479
		c0.743,0.832,1.743,1.246,3.002,1.246c1.385,0,2.771-0.365,4.163-1.098l0.312,1.611C61.994,92.385,60.479,92.79,58.775,92.79z
		 M60.787,81.842c-0.586-0.695-1.387-1.044-2.404-1.044c-1.02,0-1.85,0.36-2.494,1.08c-0.644,0.72-1.022,1.704-1.135,2.953h6.91
		C61.664,83.534,61.371,82.538,60.787,81.842z"/>
	<path fill="#14438F" d="M71.721,79.307c0.357,0,0.684,0.023,0.979,0.071l-0.072,1.838c-0.364-0.063-0.685-0.096-0.955-0.096
		c-1.112,0-2.019,0.388-2.713,1.163c-0.696,0.775-1.045,1.736-1.045,2.882v7.351h-1.992c-0.008-8.033-0.012-12.397-0.012-13.09
		h1.657l0.191,2.352c0.453-0.74,1.029-1.338,1.729-1.791S70.934,79.307,71.721,79.307z"/>
</g>
<g>
	
		<linearGradient id="SVGID_1_" gradientUnits="userSpaceOnUse" x1="407.5195" y1="-258.9727" x2="407.5195" y2="-232.4087" gradientTransform="matrix(1 0 0 -1 -371 -198.5)">
		<stop  offset="0.4" style="stop-color:#14438F"/>
		<stop  offset="1" style="stop-color:#18142D"/>
	</linearGradient>
	<path fill="url(#SVGID_1_)" d="M36.487,33.909c0,0-14.324,12.623-15.376,26.564c10.622-3.825,28.642-0.833,30.815,0
		C41.324,49.16,36.487,33.909,36.487,33.909z"/>
	
		<linearGradient id="SVGID_2_" gradientUnits="userSpaceOnUse" x1="409.4805" y1="-237.6504" x2="409.4805" y2="-211.0869" gradientTransform="matrix(1 0 0 -1 -371 -198.5)">
		<stop  offset="0" style="stop-color:#2780C2"/>
		<stop  offset="0.5024" style="stop-color:#D4EAE8"/>
	</linearGradient>
	<path fill="url(#SVGID_2_)" d="M23.073,12.587C33.677,23.9,38.511,39.15,38.511,39.15s14.618-12.601,15.378-26.563
		C44.142,16.077,24.864,13.552,23.073,12.587z M40.485,24.957c-1.778,0-3.221-1.442-3.221-3.22c0-1.779,1.442-3.221,3.221-3.221
		s3.22,1.441,3.22,3.221C43.705,23.515,42.264,24.957,40.485,24.957z"/>
</g>
</svg>
