<?xml version="1.0" encoding="utf-8"?>
<!-- Generator: Adobe Illustrator 16.0.0, SVG Export Plug-In . SVG Version: 6.00 Build 0)  -->
<!DOCTYPE svg PUBLIC "-//W3C//DTD SVG 1.1//EN" "http://www.w3.org/Graphics/SVG/1.1/DTD/svg11.dtd">
<svg version="1.1" id="Capa_1" xmlns="http://www.w3.org/2000/svg" xmlns:xlink="http://www.w3.org/1999/xlink" x="0px" y="0px"
	 width="70px" height="70px" viewBox="0 0 70 70" enable-background="new 0 0 70 70" xml:space="preserve">
<linearGradient id="SVGID_1_" gradientUnits="userSpaceOnUse" x1="34.9976" y1="46.457" x2="34.9976" y2="22.9678">
	<stop  offset="0.4" style="stop-color:#14438F"/>
	<stop  offset="1" style="stop-color:#18142D"/>
</linearGradient>
<path fill="url(#SVGID_1_)" d="M34.969,22.967c0,0-12.666,11.162-13.597,23.49c9.393-3.383,25.328-0.736,27.25,0
	C39.246,36.453,34.969,22.967,34.969,22.967z"/>
<linearGradient id="SVGID_2_" gradientUnits="userSpaceOnUse" x1="36.7324" y1="27.6021" x2="36.7324" y2="4.1118">
	<stop  offset="0" style="stop-color:#2780C2"/>
	<stop  offset="0.5024" style="stop-color:#D4EAE8"/>
</linearGradient>
<path fill="url(#SVGID_2_)" d="M23.107,4.112c9.377,10.004,13.652,23.49,13.652,23.49s12.926-11.143,13.598-23.49
	C41.738,7.198,24.691,4.965,23.107,4.112z M38.505,15.051c-1.573,0-2.849-1.275-2.849-2.848s1.275-2.848,2.849-2.848
	c1.572,0,2.847,1.275,2.847,2.848S40.077,15.051,38.505,15.051z"/>
<g>
	<path fill="#FFFFFF" d="M3.674,65.617V49.643h1.88v14.313h7.032l-0.064,1.662H3.674z"/>
	<path fill="#FFFFFF" d="M13.404,61.664v-7.896h1.814v7.918c0,0.52,0.074,0.959,0.222,1.318s0.36,0.639,0.638,0.838
		c0.277,0.197,0.59,0.34,0.939,0.426s0.751,0.129,1.204,0.129c0.937,0,1.666-0.205,2.188-0.615c0.522-0.41,0.783-1.109,0.783-2.096
		v-7.918h1.815v7.896c0,0.605-0.087,1.148-0.26,1.631s-0.405,0.885-0.696,1.205c-0.292,0.32-0.643,0.586-1.054,0.793
		c-0.41,0.209-0.844,0.361-1.302,0.455c-0.457,0.094-0.948,0.141-1.475,0.141c-0.518,0-1.008-0.047-1.469-0.141
		s-0.898-0.248-1.313-0.459c-0.414-0.213-0.771-0.479-1.069-0.801c-0.299-0.32-0.534-0.721-0.707-1.203S13.404,62.262,13.404,61.664
		z"/>
	<path fill="#FFFFFF" d="M40.191,65.617v-6.168c0-0.576-0.013-1.059-0.037-1.447c-0.025-0.389-0.084-0.785-0.174-1.188
		c-0.09-0.404-0.216-0.723-0.378-0.957c-0.161-0.232-0.388-0.424-0.675-0.572c-0.288-0.146-0.634-0.221-1.037-0.221
		c-0.793,0-1.467,0.213-2.025,0.637c-0.559,0.426-0.956,1.023-1.193,1.793c-0.065,0.52-0.098,1.074-0.098,1.664v6.459h-1.804v-6.361
		c0-0.533-0.019-0.996-0.055-1.389s-0.104-0.773-0.205-1.145s-0.235-0.672-0.405-0.902c-0.169-0.23-0.394-0.414-0.675-0.551
		c-0.28-0.137-0.615-0.205-1.005-0.205c-0.863,0-1.589,0.219-2.176,0.658s-0.981,1.023-1.184,1.75
		c-0.064,0.555-0.097,1.156-0.097,1.805v6.34h-1.804c-0.015-7.41-0.021-11.359-0.021-11.85h1.512l0.227,1.697
		c0.36-0.549,0.872-1.01,1.534-1.383c0.662-0.375,1.415-0.563,2.258-0.563c0.439,0,0.844,0.045,1.215,0.135s0.681,0.203,0.93,0.34
		c0.248,0.139,0.47,0.301,0.664,0.492s0.346,0.379,0.453,0.563c0.108,0.184,0.198,0.375,0.271,0.578
		c0.864-1.404,2.186-2.107,3.965-2.107c1.317,0,2.284,0.377,2.9,1.129c0.615,0.752,0.924,1.867,0.924,3.344v7.625H40.191z"/>
	<path fill="#FFFFFF" d="M45.871,49.459v2.139h-1.814v-2.139H45.871z M45.871,53.768v11.85h-1.814v-11.85H45.871z"/>
	<path fill="#FFFFFF" d="M53.723,65.867c-1.722,0-3.077-0.549-4.067-1.643s-1.485-2.592-1.485-4.494
		c0-1.836,0.479-3.324,1.438-4.467c0.957-1.141,2.217-1.723,3.78-1.744c1.469,0,2.634,0.502,3.494,1.508
		c0.86,1.004,1.291,2.346,1.291,4.023c0,0.086-0.002,0.244-0.005,0.475c-0.004,0.23-0.006,0.396-0.006,0.498h-8.135
		c0.022,1.346,0.369,2.395,1.043,3.148c0.674,0.752,1.579,1.129,2.717,1.129c1.253,0,2.51-0.332,3.77-0.994l0.281,1.457
		C56.635,65.5,55.264,65.867,53.723,65.867z M55.543,55.955c-0.529-0.629-1.256-0.945-2.178-0.945s-1.674,0.326-2.257,0.979
		s-0.926,1.543-1.026,2.674h6.254C56.336,57.488,56.072,56.586,55.543,55.955z"/>
	<path fill="#FFFFFF" d="M65.44,53.66c0.323,0,0.619,0.021,0.886,0.064l-0.064,1.664c-0.332-0.059-0.62-0.086-0.865-0.086
		c-1.008,0-1.826,0.35-2.457,1.053c-0.63,0.701-0.945,1.572-0.945,2.609v6.652H60.19c-0.007-7.273-0.011-11.223-0.011-11.85h1.502
		l0.172,2.129c0.411-0.67,0.934-1.211,1.566-1.621C64.054,53.865,64.728,53.66,65.44,53.66z"/>
</g>
</svg>
